<?xml version="1.0" encoding="UTF-8" standalone="no"?>
<!-- Created with Inkscape (http://www.inkscape.org/) -->

<svg
   xmlns:dc="http://purl.org/dc/elements/1.1/"
   xmlns:cc="http://creativecommons.org/ns#"
   xmlns:rdf="http://www.w3.org/1999/02/22-rdf-syntax-ns#"
   xmlns:svg="http://www.w3.org/2000/svg"
   xmlns="http://www.w3.org/2000/svg"
   xmlns:sodipodi="http://sodipodi.sourceforge.net/DTD/sodipodi-0.dtd"
   xmlns:inkscape="http://www.inkscape.org/namespaces/inkscape"
   version="1.1"
   id="svg815"
   width="1173.623"
   height="514.12592"
   viewBox="0 0 1173.6231 514.12592"
   sodipodi:docname="cessna-172-skyhawk.svg"
   inkscape:version="0.92.2 (5c3e80d, 2017-08-06)">
  <metadata
     id="metadata821">
    <rdf:RDF>
      <cc:Work
         rdf:about="">
        <dc:format>image/svg+xml</dc:format>
        <dc:type
           rdf:resource="http://purl.org/dc/dcmitype/StillImage" />
        <dc:title></dc:title>
      </cc:Work>
    </rdf:RDF>
  </metadata>
  <defs
     id="defs819" />
  <sodipodi:namedview
     pagecolor="#ffffff"
     bordercolor="#666666"
     borderopacity="1"
     objecttolerance="10"
     gridtolerance="10"
     guidetolerance="10"
     inkscape:pageopacity="0"
     inkscape:pageshadow="2"
     inkscape:window-width="2560"
     inkscape:window-height="1027"
     id="namedview817"
     showgrid="false"
     inkscape:zoom="0.3549323"
     inkscape:cx="-1.4665758"
     inkscape:cy="554.63977"
     inkscape:window-x="-8"
     inkscape:window-y="-8"
     inkscape:window-maximized="1"
     inkscape:current-layer="layer2" />
  <g
     inkscape:groupmode="layer"
     id="layer2"
     inkscape:label="silhouette"
     style="display:inline"
     transform="translate(-59.952056,-132.51588)">
    <path
       style="color:#000000;clip-rule:nonzero;display:inline;overflow:visible;visibility:visible;opacity:1;isolation:auto;mix-blend-mode:normal;color-interpolation:sRGB;color-interpolation-filters:linearRGB;solid-color:#000000;solid-opacity:1;fill:#2d282e;fill-opacity:1;fill-rule:evenodd;stroke:none;stroke-width:5;stroke-linecap:butt;stroke-linejoin:miter;stroke-miterlimit:4;stroke-dasharray:none;stroke-dashoffset:0;stroke-opacity:1;color-rendering:auto;image-rendering:auto;shape-rendering:auto;text-rendering:auto;enable-background:accumulate"
       d="m 1108.1602,132.53125 c -0.9274,0.0245 -1.8753,0.078 -2.8438,0.16602 -15.4959,1.40872 -19.3691,2.81876 -32.7519,7.04492 -13.3828,4.22615 -146.85942,45.60742 -146.85942,45.60742 0,0 -126.96144,38.7393 -138.93555,42.61328 -11.97412,3.87397 -137.52567,46.83912 -157.42383,52.82617 -19.89816,5.98706 -21.30684,6.33892 -23.41992,6.86719 -2.11308,0.52827 -3.875,2.11328 -3.875,2.11328 l -90.33398,26.58985 c 0,0 -29.58283,-7.92434 -44.72657,-9.86133 -15.14373,-1.93699 -22.18666,-3.34406 -33.80859,-3.16797 -11.62194,0.17609 -9.68553,1.05479 -16.37695,-1.23438 -6.69141,-2.28917 -8.98107,-3.16807 -15.32031,-4.22461 -6.33925,-1.05653 -8.45118,-0.70507 -8.45118,-0.70507 0,0 -8.27639,-6.51584 -25.5332,-5.28321 -17.25682,1.23263 -20.07525,3.17033 -20.60352,4.05078 -0.52827,0.88045 10e-4,5.63424 7.22071,13.73438 7.21969,8.10014 7.21875,8.27734 7.21875,8.27734 0,0 -6.1619,5.28165 -7.39453,12.85352 -1.23263,7.57187 -1.41006,10.0368 -0.35352,13.55859 1.05654,3.5218 3.16992,9.86133 3.16992,9.86133 l -281.302732,77.7207 c 0,0 -20.295535,5.85242 -14.443359,11.58008 5.852176,5.72766 15.190376,15.68882 40.466801,22.03906 25.27642,6.35023 64.22265,16.23829 64.22265,16.23829 0,0 5.63445,1.40867 9.15625,1.14453 3.5218,-0.26413 246.99805,-28.21485 246.99805,-28.21485 0,0 1.72918,3.12181 3.57812,3.82617 1.84894,0.70436 10.21289,0.52735 10.21289,0.52735 l 2.02149,-0.0586 13.07422,7.59571 -5.29297,12.45117 c 0,0 -10.89476,-2.17778 -22.97266,0.3125 -12.07789,2.49029 -18.92578,7.3457 -18.92578,7.3457 0,0 -1.27287,0.61683 -0.48047,1.9375 0.79241,1.32068 15.4961,23.41992 15.4961,23.41992 1.32068,2.46523 2.8164,2.11329 2.8164,2.11329 0,0 1.93724,9.06783 7.66016,13.82226 0,0 3.61014,5.63579 9.86133,6.16406 6.25119,0.52827 9.86082,-10e-4 11.26953,-0.52929 1.40872,-0.52827 8.89258,-5.54688 8.89258,-5.54688 0,0 3.69751,1.58507 8.01171,0.96875 4.3142,-0.61631 25.53321,-3.60937 25.53321,-3.60937 0,0 3.60943,-0.61647 2.46484,-3.25782 -1.14458,-2.64134 -7.48328,-10.47757 -18.13672,-21.04296 C 466.28601,490.60062 460.5625,486.375 460.5625,486.375 l 5.49414,-4.50391 c 0,0 2.86524,-1.86905 2.86524,-6.35156 0,0 6.22448,4.35834 11.70312,7.09766 5.47863,2.73931 11.70491,6.72455 19.67383,9.21484 7.96892,2.49029 72.16992,22.45313 72.16992,22.45313 0,0 -15.4967,13.55786 -21.83594,19.54492 -6.33923,5.98706 -12.50195,12.67969 -12.50195,12.67969 l -8.27539,-5.28321 c 0,0 -3.17084,-1.9375 -5.98828,-1.9375 -2.81744,0 -3.87274,0.17753 -4.04883,1.41016 -0.17609,1.23263 2.11163,1.58377 5.28125,2.8164 3.16961,1.23263 10.21289,6.16407 10.21289,6.16407 l -8.62695,10.38867 c 0,0 -13.9124,-9.86102 -30.46485,-10.03711 -16.55245,-0.17609 -27.29297,5.2832 -27.29297,5.2832 0,0 -3.87459,1.23201 -2.99414,3.69727 0.88045,2.46526 1.58428,6.69129 8.09961,15.67187 6.51533,8.98059 7.57341,11.27066 9.15821,12.85547 1.58481,1.58481 5.63476,3.16797 5.63476,3.16797 0,0 3.52219,10.74167 10.91797,15.49609 4.57834,4.40225 10.74002,5.8125 15.31836,5.8125 4.57834,0 8.4523,-1.23416 10.03711,-2.46679 1.58481,-1.23263 4.40234,-4.40235 4.40234,-4.40235 0,0 8.73281,0.87312 19.19336,1.05664 10.03713,0.1761 16.37685,0.52993 22.01172,-6.51367 5.63488,-5.63488 1.23397,-6.8679 0.35352,-7.57226 -0.88045,-0.70436 -38.38868,-28.70313 -38.38867,-28.70313 0,0 10.03646,-10.91765 27.11718,-21.13086 17.08072,-10.21322 29.93555,-21.6582 29.93555,-21.6582 0,0 7.39728,3.87222 19.19531,5.45703 11.79802,1.58481 75.36524,14.79297 75.36524,14.79297 0,0 2.78601,7.98524 8.51367,13.21484 5.72766,5.2296 9.46283,5.22851 11.95312,5.72657 2.49028,0.49806 11.20595,0.4991 15.9375,-2.73829 4.73154,-3.23737 7.47071,-6.22656 7.47071,-6.22656 0,0 10.20975,3.48631 19.92187,4.48242 9.71212,0.99612 10.70899,0.9961 10.70899,0.9961 l 154.39648,32.87109 -53.54102,21.91602 c 0,0 -4.48242,1.74214 -3.98437,3.73437 0.49806,1.99223 3.48723,5.23043 7.22266,7.22266 3.73543,1.99223 8.21875,3.98437 8.21875,3.98437 0,0 3.48629,1.9922 4.98046,1.49414 1.49417,-0.49806 38.59961,14.94141 38.59961,14.94141 12.94949,5.97669 13.69626,3.73633 15.43946,3.73633 1.7432,0 38.10156,-6.72461 38.10156,-6.72461 0,0 -5.72859,-4.23344 -2.24219,-2.49024 3.4864,1.74321 3.98528,2.98733 7.7207,2.24024 3.73543,-0.74708 82.17968,-15.6875 82.17968,-15.6875 0,0 18.6766,-0.74803 27.3926,-1.24609 8.716,-0.49806 15.4394,-18.17774 15.4394,-18.17774 l 14.1954,4.48242 c 0,0 0.9949,1.24414 5.7265,1.24414 4.7315,0 111.5645,-43.08203 111.5645,-43.08203 0,0 4.7315,-1.74314 2.9883,-2.98828 -1.7432,-1.24514 -44.3262,-24.6543 -44.3262,-24.6543 0,0 -4.2343,-3.23732 -6.7246,-2.49023 -2.4903,0.74708 -3.9844,0.99609 -3.9844,0.99609 0,0 -7.7197,-6.22461 -15.4395,-6.22461 -7.7199,0 -40.0937,4.73047 -40.0937,4.73047 l 29.3867,-82.67773 c 0,0 3.7344,0.99616 6.2246,-1.99219 2.4903,-2.98834 1.4952,-4.73139 -1.2441,-6.97266 -2.7393,-2.24126 -43.8301,-24.40429 -43.8301,-24.40429 l -0.498,-4.23242 c 0,0 0.9962,-0.49801 -1.9922,-2.49024 l 0.2832,-4.22851 c 0,0 -0.7038,-1.76141 -4.7539,-1.9375 -4.0501,-0.17609 -4.2266,1.58398 -4.2266,1.58398 l -0.1758,3.69922 c 0,0 -1.4095,-0.17671 -1.7617,0.35156 -0.3521,0.52827 -0.1758,2.64063 -0.1758,2.64063 l -7.5722,0.17578 c 0,0 -4.2252,-0.17496 -6.1622,1.58594 -1.937,1.7609 -101.07613,94.91211 -101.07612,94.91211 l -50.18555,-13.38282 c 0,0 -5.45815,-0.35206 -13.73438,-5.63476 -8.27623,-5.2827 -140.87304,-88.75 -140.87304,-88.75 0,0 -7.74794,-4.04944 -10.03711,-7.04297 -2.28917,-2.99353 -1.93555,-2.81836 -1.93555,-2.81836 l 186.83008,-61.80664 c 3.87398,-1.40872 5.10742,-1.7612 5.10742,-3.16992 0,-1.40872 -1.93678,-5.4596 -4.57813,-8.45313 -2.64134,-2.99352 -15.67187,-19.19336 -15.67187,-19.19336 0,0 11.44439,4.57956 15.31836,5.98828 3.87398,1.40872 7.39555,-0.88167 11.26953,-2.64258 3.87398,-1.76089 173.62496,-85.22656 173.62496,-85.22656 20.7787,-10.5654 44.5508,-23.94838 54.5879,-28.8789 10.0371,-4.93052 13.2067,-6.16355 12.3262,-7.57227 -0.8804,-1.40872 -27.4687,-17.60937 -27.4687,-17.60937 l -41.2051,-23.94727 c 0,0 -3e-4,-2.64103 -2.1133,-3.52148 -2.1131,-0.88045 -5.1074,0 -5.1074,0 0,0 -9.1313,-6.34609 -23.041,-5.97852 z M 456.60156,469.38281 c 0,0 8.80376,4.7538 9.33203,7.04297 0.52827,2.28916 -3.1692,4.57864 -5.81054,6.51563 -2.64135,1.93699 -4.40245,0.17537 -5.45899,-0.70508 -1.05654,-0.88045 -1.58398,-2.46566 -1.58398,-4.22656 0,-1.76089 3.52148,-8.62696 3.52148,-8.62696 z"
       id="path828"
       inkscape:connector-curvature="0" />
  </g>
  <g
     inkscape:groupmode="layer"
     id="layer3"
     inkscape:label="prop"
     style="display:inline"
     transform="translate(-59.952056,-132.51588)">
    <path
       style="color:#000000;clip-rule:nonzero;display:inline;overflow:visible;visibility:visible;opacity:1;isolation:auto;mix-blend-mode:normal;color-interpolation:sRGB;color-interpolation-filters:linearRGB;solid-color:#000000;solid-opacity:1;fill:#2d282e;fill-opacity:0.2;fill-rule:evenodd;stroke:none;stroke-width:5;stroke-linecap:butt;stroke-linejoin:miter;stroke-miterlimit:4;stroke-dasharray:none;stroke-dashoffset:0;stroke-opacity:1;color-rendering:auto;image-rendering:auto;shape-rendering:auto;text-rendering:auto;enable-background:accumulate"
       d="m 374.01499,322.17076 c -2.81744,-8.45231 2.81744,-10.21321 6.33924,-11.26975 3.5218,-1.05654 8.10014,0.70436 8.45232,2.11308 0.35218,1.40872 1.05654,12.32629 3.5218,21.13079 2.46525,8.8045 9.50885,14.43937 10.91757,19.72207 1.40872,5.2827 -14.43937,16.20027 -16.55245,4.57834 -2.11308,-11.62194 8.10013,-20.77861 0.70436,-27.82221 -7.39578,-7.0436 -13.38284,-8.45232 -13.38284,-8.45232 z"
       id="path842"
       inkscape:connector-curvature="0" />
    <path
       style="color:#000000;clip-rule:nonzero;display:inline;overflow:visible;visibility:visible;opacity:1;isolation:auto;mix-blend-mode:normal;color-interpolation:sRGB;color-interpolation-filters:linearRGB;solid-color:#000000;solid-opacity:1;fill:#2d282e;fill-opacity:0.2;fill-rule:evenodd;stroke:none;stroke-width:5;stroke-linecap:butt;stroke-linejoin:miter;stroke-miterlimit:4;stroke-dasharray:none;stroke-dashoffset:0;stroke-opacity:1;color-rendering:auto;image-rendering:auto;shape-rendering:auto;text-rendering:auto;enable-background:accumulate"
       d="m 373.66281,290.82676 c 1.05654,-13.73502 -2.46526,-9.86104 -9.86103,-23.24387 -7.39578,-13.38284 -12.67848,-42.26158 -23.59605,-60.22275 -10.91758,-17.96118 -30.63965,-34.16145 -37.33107,-31.69619 -6.69141,2.46526 11.97412,26.06131 5.63488,47.89646 -6.33923,21.83515 -8.10013,26.76567 -5.63488,29.93529 2.46526,3.16961 11.62194,12.32629 28.52657,25.00476 16.90463,12.67848 20.77861,15.14374 20.77861,15.14374 0,0 7.39578,-2.81744 13.73502,-2.46526 6.33923,0.35218 7.74795,-0.35218 7.74795,-0.35218 z"
       id="path844"
       inkscape:connector-curvature="0" />
  </g>
  <g
     inkscape:groupmode="layer"
     id="layer4"
     inkscape:label="cable"
     transform="translate(-59.952056,-132.51588)">
    <path
       style="color:#000000;clip-rule:nonzero;display:inline;overflow:visible;visibility:visible;opacity:1;isolation:auto;mix-blend-mode:normal;color-interpolation:sRGB;color-interpolation-filters:linearRGB;solid-color:#000000;solid-opacity:1;fill:none;fill-opacity:1;fill-rule:evenodd;stroke:#2d282e;stroke-width:5;stroke-linecap:butt;stroke-linejoin:miter;stroke-miterlimit:4;stroke-dasharray:none;stroke-dashoffset:0;stroke-opacity:0.2;color-rendering:auto;image-rendering:auto;shape-rendering:auto;text-rendering:auto;enable-background:accumulate"
       d="m 1079.7834,425.71164 -11.9741,-2.81744 c 0,0 -35.9224,4.93052 -85.9319,-11.26976 -50.00954,-16.20027 -140.16758,-42.26158 -140.16758,-42.26158"
       id="path849"
       inkscape:connector-curvature="0" />
    <path
       style="color:#000000;clip-rule:nonzero;display:inline;overflow:visible;visibility:visible;opacity:1;isolation:auto;mix-blend-mode:normal;color-interpolation:sRGB;color-interpolation-filters:linearRGB;solid-color:#000000;solid-opacity:1;fill:none;fill-opacity:1;fill-rule:evenodd;stroke:#2d282e;stroke-width:5;stroke-linecap:butt;stroke-linejoin:miter;stroke-miterlimit:4;stroke-dasharray:none;stroke-dashoffset:0;stroke-opacity:0.2;color-rendering:auto;image-rendering:auto;shape-rendering:auto;text-rendering:auto;enable-background:accumulate"
       d="m 1079.7834,396.12853 c 0,0 14.7916,20.42643 18.3133,33.80927 3.5218,13.38283 4.2262,12.67847 4.2262,12.67847"
       id="path851"
       inkscape:connector-curvature="0" />
  </g>
</svg>
