<?xml version="1.0" encoding="UTF-8" standalone="no"?>
<!-- Created with Inkscape (http://www.inkscape.org/) -->

<svg
   xmlns:dc="http://purl.org/dc/elements/1.1/"
   xmlns:cc="http://creativecommons.org/ns#"
   xmlns:rdf="http://www.w3.org/1999/02/22-rdf-syntax-ns#"
   xmlns:svg="http://www.w3.org/2000/svg"
   xmlns="http://www.w3.org/2000/svg"
   xmlns:sodipodi="http://sodipodi.sourceforge.net/DTD/sodipodi-0.dtd"
   xmlns:inkscape="http://www.inkscape.org/namespaces/inkscape"
   version="1.1"
   id="svg1376"
   width="805.85437"
   height="325.52014"
   viewBox="0 0 805.85437 325.52014"
   sodipodi:docname="piper-pa-44-seminole.svg"
   inkscape:version="0.92.2 (5c3e80d, 2017-08-06)">
  <metadata
     id="metadata1382">
    <rdf:RDF>
      <cc:Work
         rdf:about="">
        <dc:format>image/svg+xml</dc:format>
        <dc:type
           rdf:resource="http://purl.org/dc/dcmitype/StillImage" />
        <dc:title></dc:title>
      </cc:Work>
    </rdf:RDF>
  </metadata>
  <defs
     id="defs1380" />
  <sodipodi:namedview
     pagecolor="#ffffff"
     bordercolor="#666666"
     borderopacity="1"
     objecttolerance="10"
     gridtolerance="10"
     guidetolerance="10"
     inkscape:pageopacity="0"
     inkscape:pageshadow="2"
     inkscape:window-width="2560"
     inkscape:window-height="1027"
     id="namedview1378"
     showgrid="false"
     inkscape:zoom="0.76027271"
     inkscape:cx="815.16256"
     inkscape:cy="193.27828"
     inkscape:window-x="-8"
     inkscape:window-y="-8"
     inkscape:window-maximized="1"
     inkscape:current-layer="svg1376" />
  <path
     style="color:#000000;clip-rule:nonzero;display:inline;overflow:visible;visibility:visible;opacity:1;isolation:auto;mix-blend-mode:normal;color-interpolation:sRGB;color-interpolation-filters:linearRGB;solid-color:#000000;solid-opacity:1;fill:#2d282e;fill-opacity:1;fill-rule:evenodd;stroke:none;stroke-width:5;stroke-linecap:butt;stroke-linejoin:miter;stroke-miterlimit:4;stroke-dasharray:none;stroke-dashoffset:0;stroke-opacity:1;color-rendering:auto;image-rendering:auto;shape-rendering:auto;text-rendering:auto;enable-background:accumulate"
     d="m 476.15731,0 c -5.23164,0 -10.9287,0.233801 -15.69531,1.628906 -1.86014,0.697552 -2.90718,1.161987 -3.02344,3.835938 -0.11626,2.673951 7.32422,4.767578 7.32422,4.767578 l 66.5,19.066406 -0.23242,2.091797 c 0,0 -28.83214,55.107377 -35.6914,67.082027 -6.85928,11.974648 -6.39411,9.416638 -19.29883,12.671878 -12.90472,3.25525 -18.13572,3.71979 -32.43555,3.60351 -14.29982,-0.11625 -33.36719,-1.39453 -33.36719,-1.39453 0,0 17.32394,-28.019058 18.02149,-29.181638 0.69755,-1.16259 1.27764,-2.78979 0.58008,-3.37109 -0.69755,-0.58129 -1.74415,1.2793 -1.74415,1.2793 l -20.46093,30.808588 c 0,0 -64.87201,-0.34989 -74.52149,0.34766 0,0 -14.64817,1.04756 -29.52929,6.51171 -14.88112,5.46416 -26.97266,18.48438 -26.97266,18.48438 0,0 -0.11547,-0.11585 -4.30078,-3.37109 -4.18532,-3.25525 -7.55787,-5.34822 -30.69336,-13.48633 -23.13549,-8.13811 -26.74024,-6.74219 -26.74024,-6.74219 0,0 -155.14672,-78.358703 -158.11132,-79.986326 -2.9646,-1.627622 -4.12696,-1.628906 -4.12696,-1.628906 0,0 -0.43023,-0.07246 -11.117184,-0.894531 C 29.833642,31.300971 16.26853,30.6449 9.9385636,31.384766 c -6.329965,0.739866 -7.726578,3.534291 -8.630859,4.849609 -0.90428097,1.315317 -1.72797197,3.699443 -1.07031297,6.330078 0.657659,2.630635 8.32741497,6.382211 13.61718837,10.21875 5.289773,3.836538 7.556641,2.382813 7.556641,2.382813 0,0 -0.0013,1.685069 2.033203,2.847656 L 130.63583,124.04883 c 0,0 -6.34737,0.14641 -10.12891,6.55859 -5.37911,9.12111 -1.31445,14.63281 -1.31445,14.63281 0,0 -3.78252,2.30313 -5.91992,3.94727 -1.64414,1.15091 -4.07185,4.42942 -3.61719,6.24804 0.49325,1.97299 3.12426,4.43808 11.67383,6.9043 8.4851,2.44762 16.44141,3.125 16.44141,3.125 0,0 -0.65794,1.1492 3.78125,4.4375 3.69065,2.73382 4.19315,2.62757 4.25976,2.51367 -0.048,0.0875 -0.19731,0.67619 0.67383,4.88672 0.98649,4.76802 4.60266,3.45271 5.91797,0 0,0 0.82195,0.16285 2.79492,1.64258 1.97298,1.47974 2.79492,-3.61719 2.79492,-3.61719 0,0 -0.16293,2.2e-4 12.99024,2.63086 13.15318,2.63063 21.86552,1.15072 38.14257,-0.82226 0,0 0.16535,5.4e-4 2.30274,0.6582 2.13739,0.65766 3.94531,0 3.94531,0 l 2.13867,1.31641 -15.29101,9.20703 c -15.29056,9.20722 -26.96405,24.00407 -31.89649,33.04687 -4.27478,8.38516 -7.22581,14.02094 -3.41406,20.1875 4.46941,5.18006 9.20938,7.41596 24.99219,10.61328 14.54403,2.94636 25.69336,2.5586 25.69336,2.5586 0,0 -0.11655,1.16218 0.69726,3.37109 0.81381,2.20892 2.90773,1.97647 4.07032,2.20899 1.16259,0.23252 1.85937,-2.32618 1.85937,-2.32618 v -3.83593 c 0,0 -0.1157,0.11542 8.13867,-0.34961 8.25437,-0.46504 23.01953,-1.39453 23.01953,-1.39453 0,0 -0.11722,-0.11609 2.32422,1.97656 2.44143,2.09266 2.20899,-0.23192 2.20899,-3.83594 0,0 4.99857,-0.46577 8.48633,-0.58203 13.13724,-0.93007 34.29687,-4.76563 34.29687,-4.76563 0,0 19.64762,-4.41944 26.39063,-5.58203 6.74301,-1.16259 7.55664,-2.09179 7.55664,-2.09179 l 23.60156,3.95312 v 2.44141 c 0,4.06905 3.7207,4.18554 3.7207,4.18554 0,0 -10e-4,0.11492 -1.39648,3.25391 -1.3951,3.13898 -0.92943,4.41935 0.81445,5.81445 1.74388,1.39511 8.25428,4.76505 16.85742,6.16016 0,0 0.2322,0.23277 3.13867,1.74414 2.90646,1.51136 10.11524,3.48828 10.11524,3.48828 0,0 0.34884,5.69658 2.20898,9.76563 1.86014,4.06906 5.23047,-4.76758 5.23047,-4.76758 0,0 0.81481,0.81539 2.32617,0.93164 1.51136,0.11626 0.53125,-3.79883 0.53125,-3.79883 0,0 -1.15042,-0.3297 17.09961,1.31445 18.25003,1.64414 35.01982,-2.95796 41.26758,-5.25976 6.24775,-2.30181 14.13867,-2.30274 14.13867,-2.30274 0,0 0.98659,0.3296 15.45508,3.28907 14.46849,2.95946 106.54141,23.34727 148.30273,31.73242 41.76134,8.38515 115.9126,24.49718 122.98243,25.8125 7.06983,1.31531 10.68755,-2.96046 14.30468,-5.91992 3.61712,-2.95947 8.71289,-7.23438 8.71289,-7.23438 0,0 1.80937,0.49434 5.09766,1.31641 3.28829,0.82207 5.75503,-1.31628 8.87891,-4.11133 3.12388,-2.79505 5.26065,-4.60335 5.7539,-5.58984 0.49324,-0.98649 -1.80831,-3.45173 -5.58984,-4.10938 -3.78154,-0.65766 -31.89671,-7.23571 -54.58594,-12.99023 -22.68923,-5.75451 -30.9097,-6.90462 -65.76562,-14.96094 -34.85591,-8.05632 -82.04442,-19.89316 -93.22461,-22.35938 -11.1802,-2.46622 -56.96875,-12.99023 -56.96875,-12.99023 0,0 0.2468,-0.3289 -0.082,-3.61719 -0.32883,-3.2883 -9.78348,-9.782 -15.12696,-12.16601 -3.12388,-1.64415 -23.34551,-8.87881 -42.58203,-13.48243 -19.23652,-4.60362 -45.87304,-1.80859 -45.87304,-1.80859 0,0 4.93359,-3.94487 24.99218,-18.74219 20.05859,-14.79732 44.22665,-31.56819 80.70508,-56.00195 0,0 3.99498,-1.80809 4.34375,-5.41211 0.34878,-3.60402 2.32422,-10.92969 2.32422,-10.92969 l 25.46094,-74.521479 c 0,0 45.92311,12.439781 59.52539,16.392579 13.60227,3.952796 23.01772,-0.116518 27.43555,-1.744141 4.41782,-1.627622 3.95267,-4.41637 2.67382,-5.927735 -1.27884,-1.511363 -9.76562,-0.93164 -9.76562,-0.93164 L 564.39755,24.648438 c 0.23251,-4.185315 0.81419,-10.812473 -0.92969,-13.253907 -0.46504,-0.465035 -4.65039,0.929688 -4.65039,0.929688 l -10.23242,3.138672 c 0,0 0.11647,-0.116328 -0.46485,-2.208985 -0.58128,-2.092658 -0.69659,-1.742828 -2.32421,-2.55664 -2.5577,-0.465035 -5.23243,6.859375 -5.23243,6.859375 C 540.56356,17.556641 481.38895,0 476.15731,0 Z M 297.88583,132.1914 c 2.35832,0 4.30078,0.55469 4.30078,0.55469 l 0.16406,7.5625 c 0,0 -0.65827,0.65862 -4.27539,4.11133 -3.61713,3.45271 -4.10937,3.94531 -4.10937,3.94531 l -3.61719,-0.98633 -4.43945,-6.74218 1.97265,-2.30078 c 1.97297,-2.30181 2.46565,-4.76903 7.5625,-5.91993 0.82208,-0.16441 1.6553,-0.22461 2.44141,-0.22461 z m 24.80859,7.78516 4.07032,2.44141 0.11523,2.90625 -4.30078,1.39453 c 0,0 -1.2791,-0.69624 -1.74414,-0.8125 -0.46503,-0.11626 -0.11719,-1.2793 -0.11719,-1.2793 0,0 0.11681,-0.46577 1.04688,-0.58203 0.93007,-0.11626 0.92968,-1.16189 0.92968,-4.06836 z"
     id="path1386"
     inkscape:connector-curvature="0" />
  <path
     style="color:#000000;clip-rule:nonzero;display:inline;overflow:visible;visibility:visible;opacity:1;isolation:auto;mix-blend-mode:normal;color-interpolation:sRGB;color-interpolation-filters:linearRGB;solid-color:#000000;solid-opacity:1;fill:#2d282e;fill-opacity:0.2;fill-rule:evenodd;stroke:none;stroke-width:5;stroke-linecap:butt;stroke-linejoin:miter;stroke-miterlimit:4;stroke-dasharray:none;stroke-dashoffset:0;stroke-opacity:1;color-rendering:auto;image-rendering:auto;shape-rendering:auto;text-rendering:auto;enable-background:accumulate"
     d="m 295.44525,132.41669 c -5.09685,1.1509 -5.5901,3.61712 -7.56307,5.91893 -1.97298,2.3018 -1.97298,2.3018 -1.97298,2.3018 l 4.4392,6.741 3.61712,0.98649 c 0,0 0.49324,-0.49324 4.11037,-3.94595 3.61712,-3.45271 4.27478,-4.11037 4.27478,-4.11037 l -0.16442,-7.56307 c 0,0 -3.4527,-0.98649 -6.741,-0.32883 z"
     id="path1388-5"
     inkscape:connector-curvature="0" />
  <path
     style="color:#000000;clip-rule:nonzero;display:inline;overflow:visible;visibility:visible;opacity:1;isolation:auto;mix-blend-mode:normal;color-interpolation:sRGB;color-interpolation-filters:linearRGB;solid-color:#000000;solid-opacity:1;fill:#2d282e;fill-opacity:0.2;fill-rule:evenodd;stroke:none;stroke-width:5;stroke-linecap:butt;stroke-linejoin:miter;stroke-miterlimit:4;stroke-dasharray:none;stroke-dashoffset:0;stroke-opacity:1;color-rendering:auto;image-rendering:auto;shape-rendering:auto;text-rendering:auto;enable-background:accumulate"
     d="m 322.69545,139.97574 c 0,2.90647 0,3.9528 -0.93007,4.06906 -0.93007,0.11626 -1.04633,0.58129 -1.04633,0.58129 0,0 -0.34877,1.16259 0.11626,1.27885 0.46504,0.11626 1.74388,0.81381 1.74388,0.81381 l 4.30158,-1.39511 -0.11626,-2.90647 z"
     id="path1390-3"
     inkscape:connector-curvature="0" />
  <path
     style="color:#000000;clip-rule:nonzero;display:inline;overflow:visible;visibility:visible;opacity:1;isolation:auto;mix-blend-mode:normal;color-interpolation:sRGB;color-interpolation-filters:linearRGB;solid-color:#000000;solid-opacity:1;fill:#2d282e;fill-opacity:0.18823529;fill-rule:evenodd;stroke:none;stroke-width:5;stroke-linecap:butt;stroke-linejoin:miter;stroke-miterlimit:4;stroke-dasharray:none;stroke-dashoffset:0;stroke-opacity:0.2;color-rendering:auto;image-rendering:auto;shape-rendering:auto;text-rendering:auto;enable-background:accumulate"
     d="m 84.50064,100.02701 c -5.91893,15.12615 -9.86488,36.00682 -8.71398,46.85819 1.1509,10.85137 5.75451,28.93698 8.71398,35.34916 2.95946,6.41217 6.08334,13.482 8.22073,15.29056 2.13739,1.80856 4.76803,2.79505 7.72749,1.64415 2.95947,-1.1509 16.60589,-21.04508 17.42796,-24.6622 0.82207,-3.61713 -3.45271,-4.93244 -3.61712,-6.90542 -0.16442,-1.97298 0,-2.63064 3.94595,-3.94595 3.94595,-1.31532 4.27478,-1.31532 4.27478,-1.31532 0,0 -10.85137,-2.46622 -12.00227,-5.09686 -1.15091,-2.63063 -1.15091,-2.13739 0.82207,-6.08334 1.97298,-3.94595 7.89224,-5.91975 7.89224,-5.91975 -2.30214,-4.43837 -1.48007,-9.04199 -1.15124,-10.3573 0.32883,-1.31532 -8.87839,-15.29057 -12.82434,-18.41445 -3.94596,-3.12388 -4.4392,-4.27478 -6.57659,-2.46622 -2.13739,1.80856 -3.61712,4.27478 -3.94595,0 -0.32883,-4.27478 2.95946,-6.08334 -2.13739,-10.19371 -5.09686,-4.110368 -5.26127,-5.096858 -8.05632,-3.78154 z"
     id="path1424"
     inkscape:connector-curvature="0" />
  <path
     style="color:#000000;clip-rule:nonzero;display:inline;overflow:visible;visibility:visible;opacity:1;isolation:auto;mix-blend-mode:normal;color-interpolation:sRGB;color-interpolation-filters:linearRGB;solid-color:#000000;solid-opacity:1;fill:#2d282e;fill-opacity:0.2;fill-rule:evenodd;stroke:none;stroke-width:5;stroke-linecap:butt;stroke-linejoin:miter;stroke-miterlimit:4;stroke-dasharray:none;stroke-dashoffset:0;stroke-opacity:1;color-rendering:auto;image-rendering:auto;shape-rendering:auto;text-rendering:auto;enable-background:accumulate"
     d="m 189.69505,181.1319 c -3.3715,9.18444 -2.09266,8.48688 -5.11538,13.25349 -3.02273,4.76661 -4.18532,5.69668 -6.04546,4.99913 -1.86014,-0.69755 -8.25437,-5.11539 -12.90472,-9.76574 -4.65035,-4.65035 -5.60783,-6.51786 -9.41696,-9.41695 -3.80912,-2.8991 -3.80912,-2.8991 -3.80912,-2.8991 0,0 4.35358,3.12245 4.97171,0.57392 0.61813,-2.54853 0.61813,-2.54853 0.61813,-2.54853 0,0 16.23939,4.29241 23.67995,4.17615 7.44056,-0.11626 7.44056,-0.11626 7.44056,-0.11626 0,0 1.04633,0.23252 0.58129,1.74389 z"
     id="path1434"
     inkscape:connector-curvature="0" />
  <path
     style="color:#000000;clip-rule:nonzero;display:inline;overflow:visible;visibility:visible;opacity:1;isolation:auto;mix-blend-mode:normal;color-interpolation:sRGB;color-interpolation-filters:linearRGB;solid-color:#000000;solid-opacity:1;fill:#2d282e;fill-opacity:0.2;fill-rule:evenodd;stroke:none;stroke-width:5;stroke-linecap:butt;stroke-linejoin:miter;stroke-miterlimit:4;stroke-dasharray:none;stroke-dashoffset:0;stroke-opacity:1;color-rendering:auto;image-rendering:auto;shape-rendering:auto;text-rendering:auto;enable-background:accumulate"
     d="m 312.92932,253.56109 c 2.32517,15.34616 2.55769,11.62588 4.65035,17.20629 2.09265,5.58042 4.88286,6.27798 7.20804,5.81294 2.32517,-0.46503 7.67308,-1.62762 7.67308,-3.72028 0,-2.09266 -2.32518,-7.90559 0.69755,-6.04545 3.02273,1.86014 3.9528,5.11538 7.67308,3.95279 3.72028,-1.16258 20.69405,-9.53321 21.85664,-10.92832 1.16259,-1.3951 1.62762,-1.86014 1.62762,-1.86014 0,0 -4.30253,-3.60474 -2.32517,-6.743 1.97735,-3.13827 1.97735,-3.13827 1.97735,-3.13827 -4.53505,-2.20964 -3.7207,-6.62695 -3.7207,-6.62695 l -23.60156,-3.95312 c 0,0 -15.11314,3.72008 -19.996,4.65015 -4.88287,0.93007 -4.41783,0.93007 -4.41783,0.93007 0,0 0,6.97553 0.69755,10.46329 z"
     id="path1436"
     inkscape:connector-curvature="0" />
  <path
     style="color:#000000;clip-rule:nonzero;display:inline;overflow:visible;visibility:visible;opacity:1;isolation:auto;mix-blend-mode:normal;color-interpolation:sRGB;color-interpolation-filters:linearRGB;solid-color:#000000;solid-opacity:1;fill:#2d282e;fill-opacity:0.2;fill-rule:evenodd;stroke:none;stroke-width:5;stroke-linecap:butt;stroke-linejoin:miter;stroke-miterlimit:4;stroke-dasharray:none;stroke-dashoffset:0;stroke-opacity:1;color-rendering:auto;image-rendering:auto;shape-rendering:auto;text-rendering:auto;enable-background:accumulate"
     d="m 402.44855,284.71843 c 5.11538,12.32343 6.27797,13.02098 8.83566,16.27623 2.5577,3.25524 -0.23251,7.67307 1.16259,10.23077 1.39511,2.55769 4.88287,9.06818 6.74301,10.46328 1.86014,1.39511 3.72028,2.79021 7.90559,-0.69755 4.18532,-3.48776 7.44056,-5.11538 16.04371,-18.83391 6.74301,-11.16084 6.74301,-16.50875 7.90559,-22.08917 1.16259,-5.58042 1.62763,-10.6958 1.62763,-10.6958 0,0 -16.22661,4.26325 -32.55245,2.79021 -16.32585,-1.47304 -16.32585,-1.47304 -16.32585,-1.47304 0,0 1.21221,3.5657 0.28214,3.79821 -0.93007,0.23252 -3.13956,-0.93102 -3.13956,-0.93102 -1.27827,3.02368 -1.97582,4.18627 -1.97582,4.18627 z"
     id="path1438"
     inkscape:connector-curvature="0"
     sodipodi:nodetypes="cccccc" />
</svg>
