<?xml version="1.0" encoding="UTF-8" standalone="no"?>
<!-- Created with Inkscape (http://www.inkscape.org/) -->

<svg
   xmlns:dc="http://purl.org/dc/elements/1.1/"
   xmlns:cc="http://creativecommons.org/ns#"
   xmlns:rdf="http://www.w3.org/1999/02/22-rdf-syntax-ns#"
   xmlns:svg="http://www.w3.org/2000/svg"
   xmlns="http://www.w3.org/2000/svg"
   xmlns:sodipodi="http://sodipodi.sourceforge.net/DTD/sodipodi-0.dtd"
   xmlns:inkscape="http://www.inkscape.org/namespaces/inkscape"
   version="1.1"
   id="svg1404"
   width="684.42938"
   height="368.08728"
   viewBox="0 0 684.42938 368.08728"
   sodipodi:docname="piper-archer.svg"
   inkscape:version="0.92.2 (5c3e80d, 2017-08-06)">
  <metadata
     id="metadata1410">
    <rdf:RDF>
      <cc:Work
         rdf:about="">
        <dc:format>image/svg+xml</dc:format>
        <dc:type
           rdf:resource="http://purl.org/dc/dcmitype/StillImage" />
        <dc:title></dc:title>
      </cc:Work>
    </rdf:RDF>
  </metadata>
  <defs
     id="defs1408" />
  <sodipodi:namedview
     pagecolor="#ffffff"
     bordercolor="#666666"
     borderopacity="1"
     objecttolerance="10"
     gridtolerance="10"
     guidetolerance="10"
     inkscape:pageopacity="0"
     inkscape:pageshadow="2"
     inkscape:window-width="1770"
     inkscape:window-height="1018"
     id="namedview1406"
     showgrid="false"
     inkscape:zoom="0.76027271"
     inkscape:cx="662.82166"
     inkscape:cy="68.560423"
     inkscape:window-x="781"
     inkscape:window-y="0"
     inkscape:window-maximized="0"
     inkscape:current-layer="svg1404" />
  <path
     style="color:#000000;clip-rule:nonzero;display:inline;overflow:visible;visibility:visible;opacity:1;isolation:auto;mix-blend-mode:normal;color-interpolation:sRGB;color-interpolation-filters:linearRGB;solid-color:#000000;solid-opacity:1;fill:#2d282e;fill-opacity:1;fill-rule:evenodd;stroke:none;stroke-width:5;stroke-linecap:butt;stroke-linejoin:miter;stroke-miterlimit:4;stroke-dasharray:none;stroke-dashoffset:0;stroke-opacity:1;color-rendering:auto;image-rendering:auto;shape-rendering:auto;text-rendering:auto;enable-background:accumulate"
     d="m 592.33037,0.00391202 c -1.84144,-0.021189 -3.969,0.042578 -6.42969,0.21875 C 572.63124,1.1726788 557.28764,8.340075 551.69755,10.970709 c -5.5901,2.630635 -18.73744,8.32534 -21.86132,11.449219 0,0 -37.32186,37.486074 -53.92774,53.105469 0,0 -10.35877,-1.644531 -26.14258,-1.644531 -15.78381,0 -28.27929,4.933593 -28.27929,4.933593 0,0 -8.87891,-0.986423 -8.87891,3.617188 0,0 -10.19234,2.630444 -32.55273,9.207031 -22.3604,6.576588 -75.96094,23.017572 -75.96094,23.017572 0,0 -1.64265,-3.8e-4 -5.25977,-1.64453 -3.61712,-1.64415 -35.51405,-26.306476 -37.1582,-27.292964 -1.64415,-0.986488 -1.31624,-0.657114 -2.30273,0.658203 -0.98648,1.315318 0.6582,1.644532 0.6582,1.644532 0,0 14.4684,10.850284 24.66211,18.742179 10.19371,7.89191 10.85156,6.90562 10.85156,10.85157 0,0 -22.6899,7.89222 -46.45898,16.1875 0,0 -19.88223,0.90196 -30.81055,1.83203 -10.92833,0.93007 -22.32227,4.88281 -22.32227,4.88281 0,0 0.46413,-1.395 -2.55859,-0.23242 l -5.11523,1.39453 c -5.11538,1.3951 -9.99833,-0.46546 -18.83399,-3.7207 -8.83567,-3.25525 -16.04297,-10.46289 -16.04297,-10.46289 0,0 -62.780478,-54.17559 -64.640618,-54.640625 -1.86014,-0.465035 -6.50977,0.929688 -6.50977,0.929688 0,0 -1.16349,-0.929688 -2.55859,-0.929688 -1.39511,0 -25.57698,2.092795 -28.36719,4.417969 l 9.06836,13.251953 2.09375,0.699219 3.02148,5.8125 2.09375,0.697265 c 0,0 -0.4657,3.720019 1.62696,5.347649 l 2.09375,1.62696 c 0,0 0.46456,3.72032 1.16211,4.65039 0.69756,0.93007 1.85937,2.09375 1.85937,2.09375 0,0 0.93097,4.18506 2.5586,5.34765 1.62762,1.16259 2.09278,4.18478 4.41796,6.04492 2.32517,1.86014 3.02149,2.5586 3.02149,2.5586 0,0 -0.93007,2.55811 0,3.7207 0.93007,1.16258 3.02344,3.25391 3.02344,3.25391 0,0 -0.93007,2.32559 0,3.7207 0.93007,1.3951 3.7207,5.34766 3.7207,5.34766 l 21.390618,36.04101 0.92969,1.16211 c 0,0 -1.85937,1.62803 -1.85937,3.72071 v 3.2539 L 0.40654217,250.49805 c 0,0 -1.46461997,1.27969 1.16601003,2.92383 2.63064,1.64415 28.6074298,1.31445 28.6074298,1.31445 0,0 13.1524,-0.65734 16.76953,-1.97266 3.61712,-1.31531 79.906248,-48.33789 79.906248,-48.33789 0,0 1.31592,1.97391 4.27539,2.30274 2.95946,0.32883 14.13867,0.6582 14.13867,0.6582 0,0 -0.98577,3.61703 -0.32813,4.60352 0.65766,0.98649 3.61616,2.63009 5.91797,-0.65821 2.30181,-3.28829 3.28907,-3.28906 3.28907,-3.28906 l 150.60351,13.48242 2.95899,1.31445 4.93359,9.20899 c 0,0 -137.78001,68.72413 -177.56836,91.74219 C 95.288112,346.80908 61.418262,363.25 61.418262,363.25 l -6.9043,2.96094 c -2.46622,1.1509 1.31433,1.72656 4.10938,1.72656 2.79505,0 33.54152,-2.5495 52.449208,-0.41211 18.90768,2.13739 40.11706,-2.46538 42.91211,-3.12305 2.79505,-0.65766 16.27693,-3.78166 22.85352,-7.23437 6.57659,-3.45271 138.76562,-73.49414 138.76562,-73.49414 0,0 0.6578,5.58974 7.23438,10.19336 6.57659,4.60361 14.79732,9.53765 20.05859,10.19531 5.26127,0.65766 10.19336,0.98633 10.19336,0.98633 0,0 2.63147,4.93187 6.90625,7.5625 4.27479,2.63064 12.1656,5.26134 18.74219,3.61719 6.57659,-1.64414 5.59132,-1.31561 8.55078,-6.24805 2.95947,-4.93245 2.30078,-6.24805 2.30078,-6.24805 0,0 2.63122,2.30169 12.4961,-7.23437 0,0 11.508,-8.54893 2.30078,-15.78321 0,0 -0.98647,-2.95904 -8.22071,-6.57617 -7.23425,-3.61712 -13.81054,-4.27539 -13.81054,-4.27539 0,0 -3.61687,-0.98717 -5.58985,-7.89258 -1.97297,-6.90542 -1.97265,-9.20703 -1.97265,-9.20703 0,0 53.59973,-31.56788 60.83398,-34.52734 7.23425,-2.95947 23.01758,-8.87695 23.01758,-8.87695 l 28.60742,-4.27539 c 0,0 1.31608,1.31445 3.28906,1.31445 1.97297,0 5.26172,-1.97266 5.26172,-1.97266 0,0 23.01748,-3.12381 37.65039,-6.41211 14.63291,-3.28829 19.23633,-4.43945 19.23633,-4.43945 l -0.32812,2.30273 c 0,0 -0.49342,1.80914 0.98633,2.4668 1.47973,0.65766 3.45156,1.15 5.0957,-0.49414 1.64415,-1.64415 6.90625,-5.58984 6.90625,-5.58984 0,0 5.09688,-0.32976 10.02929,-2.30274 4.93246,-1.97297 6.41211,-2.46484 6.41211,-2.46484 l -1.64453,9.53515 c 0,0 -1.64363,0.16426 -1.15039,0.98633 0.49324,0.82208 8.54883,7.72852 8.54883,7.72852 l -42.08984,9.04297 c 0,0 -1.80789,-0.16457 -2.13672,0.98633 -0.32883,1.1509 3.94531,9.20703 3.94531,9.20703 0,0 2.30187,4.6037 3.61719,5.42578 1.31532,0.82207 3.78135,1.48031 9.20703,2.4668 5.42569,0.98648 22.35979,4.93129 25.8125,5.0957 3.45271,0.16442 3.94725,0.16406 3.94727,0.16406 0,0 4.43776,7.07035 8.87695,8.87891 4.4392,1.80856 10.03045,3.1234 14.96289,2.95898 4.93244,-0.16441 10.19323,-4.60217 12.98828,-8.87695 2.79505,-4.27478 1.97266,-7.40039 1.97266,-7.40039 0,0 5.09808,-1.47838 8.55078,-4.27344 2.30181,-3.4527 2.14264,-8.04858 0,-11.50977 -2.13739,-3.45271 -10.85208,-10.35835 -19.73047,-12.66015 -6.74101,-1.97298 -15.61914,-1.8086 -15.61914,-1.8086 l -0.32813,-1.64453 -3.94726,0.33008 c 0,0 0.98735,-1.64389 -1.31446,-5.58984 -2.3018,-3.94595 -4.60476,-6.90648 -4.93359,-9.53711 -0.32883,-2.63064 -0.32812,-2.4668 -0.32812,-2.4668 0,0 16.93551,-7.2331 25.15625,-15.125 l 8.2207,-7.89258 c 0,0 13.1533,-6.24661 17.26367,-15.125 2.13739,-2.79505 1.31445,-4.43945 1.31445,-4.43945 2.79505,-1.47973 3.7809,-2.79477 3.94532,-3.78125 l 0.16406,-0.98633 c 0,0 7.40007,-0.98751 19.40234,-7.72851 12.00228,-6.741 16.11133,-9.53516 16.11133,-9.53516 1.80857,-1.15091 0,-3.61719 0,-3.61719 -2.63063,-3.28829 -10.1923,-6.24757 -20.71484,-9.20703 -10.52254,-2.95946 -10.85157,-1.80859 -10.85157,-1.80859 0,0 -0.32915,-3.61847 -8.05664,-5.755855 -7.72749,-2.137393 -11.01537,-3.123593 -16.60546,-3.781252 -5.59011,-0.657659 -25.48567,-2.301997 -47.68165,-0.822266 -22.19598,1.479732 -25.31837,1.808594 -25.31835,1.808594 0,0 14.37881,-22.253427 24.13085,-40.90039 9.28455,-17.753063 28.97461,-47.5546884 28.97461,-47.5546884 0.49324,-3.4527087 -1.15147,-4.1104637 -2.46679,-5.4257812 -1.0687,-1.0686955 -3.67669,-2.75778838 -11.65625,-2.84960938 z M 417.89091,111.2207 c 3.83653,1.9764 2.09375,5.8125 2.09375,5.8125 l -11.39453,1.97657 c -11.39336,1.9764 -20.34429,1.04706 -21.39062,0.58203 -1.04633,-0.46504 -0.58223,-0.698 -0.11719,-1.2793 0.46503,-0.58129 30.80859,-7.0918 30.80859,-7.0918 z m 167.29688,76.61329 h 2.32422 c 0,0 0.11668,1e-5 3.7207,7.09179 3.60402,7.09179 1.97656,7.44141 1.97656,7.44141 h -3.60351 l -6.51172,-5.11524 z m -271.22852,33.36328 19.56641,0.82226 -16.11328,7.72657 c 0,0 -0.16445,4.8e-4 -1.8086,-2.95899 -1.64415,-2.95946 -1.64453,-5.58984 -1.64453,-5.58984 z"
     id="path1424"
     inkscape:connector-curvature="0" />
  <path
     style="color:#000000;clip-rule:nonzero;display:inline;overflow:visible;visibility:visible;opacity:1;isolation:auto;mix-blend-mode:normal;color-interpolation:sRGB;color-interpolation-filters:linearRGB;solid-color:#000000;solid-opacity:1;fill:#2d282e;fill-opacity:0.2;fill-rule:evenodd;stroke:none;stroke-width:5;stroke-linecap:butt;stroke-linejoin:miter;stroke-miterlimit:4;stroke-dasharray:none;stroke-dashoffset:0;stroke-opacity:1;color-rendering:auto;image-rendering:auto;shape-rendering:auto;text-rendering:auto;enable-background:accumulate"
     d="m 656.43538,133.23482 c 12.16669,21.70274 15.78381,23.67571 20.38742,28.27932 4.60361,4.60362 7.23425,19.07211 7.56308,-7.56307 0.32883,-26.63518 -1.31532,-34.85592 -1.31532,-34.85592 0,0 -16.44147,9.53605 -26.63518,14.13967 z"
     id="path1432"
     inkscape:connector-curvature="0"
     sodipodi:nodetypes="ccscc" />
  <path
     style="color:#000000;clip-rule:nonzero;display:inline;overflow:visible;visibility:visible;opacity:1;isolation:auto;mix-blend-mode:normal;color-interpolation:sRGB;color-interpolation-filters:linearRGB;solid-color:#000000;solid-opacity:1;fill:#2d282e;fill-opacity:0.2;fill-rule:evenodd;stroke:none;stroke-width:5;stroke-linecap:butt;stroke-linejoin:miter;stroke-miterlimit:4;stroke-dasharray:none;stroke-dashoffset:0;stroke-opacity:1;color-rendering:auto;image-rendering:auto;shape-rendering:auto;text-rendering:auto;enable-background:accumulate"
     d="M 683.39939,119.75281 C 678.13812,87.52754 671.2327,62.865336 667.94441,61.550019 c -3.2883,-1.315318 0.65766,0.986488 -0.98649,12.824346 -1.64415,11.837857 -6.24776,6.905416 -8.87839,20.387421 -2.63064,13.482004 -2.95947,14.139654 -2.95947,14.139654 0,0 19.07211,3.94596 28.27933,10.85137 z"
     id="path1434"
     inkscape:connector-curvature="0" />
</svg>
