<?xml version="1.0" encoding="UTF-8" standalone="no"?>
<!-- Created with Inkscape (http://www.inkscape.org/) -->

<svg
   xmlns:dc="http://purl.org/dc/elements/1.1/"
   xmlns:cc="http://creativecommons.org/ns#"
   xmlns:rdf="http://www.w3.org/1999/02/22-rdf-syntax-ns#"
   xmlns:svg="http://www.w3.org/2000/svg"
   xmlns="http://www.w3.org/2000/svg"
   xmlns:sodipodi="http://sodipodi.sourceforge.net/DTD/sodipodi-0.dtd"
   xmlns:inkscape="http://www.inkscape.org/namespaces/inkscape"
   version="1.1"
   id="svg4504"
   width="1997.1154"
   height="952.83655"
   viewBox="0 0 1997.1154 952.83655"
   sodipodi:docname="plane.svg"
   inkscape:version="0.92.2 (5c3e80d, 2017-08-06)">
  <metadata
     id="metadata4510">
    <rdf:RDF>
      <cc:Work
         rdf:about="">
        <dc:format>image/svg+xml</dc:format>
        <dc:type
           rdf:resource="http://purl.org/dc/dcmitype/StillImage" />
        <dc:title></dc:title>
      </cc:Work>
    </rdf:RDF>
  </metadata>
  <defs
     id="defs4508" />
  <sodipodi:namedview
     pagecolor="#ffffff"
     bordercolor="#666666"
     borderopacity="1"
     objecttolerance="10"
     gridtolerance="10"
     guidetolerance="10"
     inkscape:pageopacity="0"
     inkscape:pageshadow="2"
     inkscape:window-width="1548"
     inkscape:window-height="1018"
     id="namedview4506"
     showgrid="false"
     inkscape:zoom="0.83125"
     inkscape:cx="1419.9248"
     inkscape:cy="505.81464"
     inkscape:window-x="1003"
     inkscape:window-y="0"
     inkscape:window-maximized="0"
     inkscape:current-layer="g4571"
     showguides="false" />
  <g
     inkscape:groupmode="layer"
     id="layer2"
     inkscape:label="silhouette"
     style="display:inline"
     transform="translate(31.385812,-186.71916)">
    <g
       style="display:inline;stroke-width:0.87216365;fill:#2d282e;fill-opacity:1"
       id="g4571"
       transform="matrix(1.1463048,-0.02483525,0.02483525,1.1463048,-111.99238,40.306811)">
      <path
         inkscape:connector-curvature="0"
         id="path4516"
         d="m 1447.5379,356.30577 -30.6936,12.78049"
         style="color:#000000;clip-rule:nonzero;display:inline;overflow:visible;visibility:visible;opacity:1;isolation:auto;mix-blend-mode:normal;color-interpolation:sRGB;color-interpolation-filters:linearRGB;solid-color:#000000;solid-opacity:1;fill:#2d282e;fill-opacity:1;fill-rule:evenodd;stroke:#2d282e;stroke-width:4.36081839;stroke-linecap:butt;stroke-linejoin:miter;stroke-miterlimit:4;stroke-dasharray:none;stroke-dashoffset:0;stroke-opacity:1;color-rendering:auto;image-rendering:auto;shape-rendering:auto;text-rendering:auto;enable-background:accumulate" />
      <path
         style="color:#000000;clip-rule:nonzero;display:inline;overflow:visible;visibility:visible;opacity:1;isolation:auto;mix-blend-mode:normal;color-interpolation:sRGB;color-interpolation-filters:linearRGB;solid-color:#000000;solid-opacity:1;fill:#2d282e;fill-opacity:1;fill-rule:evenodd;stroke:none;stroke-width:5;stroke-linecap:butt;stroke-linejoin:miter;stroke-miterlimit:4;stroke-dasharray:none;stroke-dashoffset:0;stroke-opacity:1;color-rendering:auto;image-rendering:auto;shape-rendering:auto;text-rendering:auto;enable-background:accumulate"
         d="M 90.892578 86.207031 C 87.552498 86.243173 84.757716 86.398854 82.570312 86.6875 C 79.653778 87.072355 76.899156 87.587408 74.294922 88.226562 C 35.231631 97.814032 29.911992 135.14888 16.578125 174.36719 C 2.3553291 216.20003 -10.81291 344.38588 13.582031 386.76367 C 37.976972 429.14144 41.734398 404.20313 41.734375 404.20312 L 216.70508 421.32422 L 389.45703 432.59961 L 859.0957 567.15234 L 736.52344 671.66016 C 736.52344 671.66016 736.71387 672.46647 704.96289 616.99219 C 673.21191 561.51791 657.94909 547.2441 650.12695 546.53125 C 642.30481 545.8184 635.14454 555.15631 635.14453 555.15625 C 625.42144 575.30245 621.91383 567.62173 616.5 609.71875 C 611.08616 651.81578 611.2168 713.87305 611.2168 713.87305 C 611.2168 713.87305 609.41383 713.44452 514.26367 724.75391 C 419.11354 736.06328 372.98039 760.51632 368.90234 764.87695 C 364.82431 769.23758 365.15438 774.26375 371.12695 777.96289 C 377.09952 781.66203 395.73047 784.9375 395.73047 784.9375 C 395.73047 784.9375 419.76541 789.49174 489.07617 787.6582 C 558.38691 785.82467 610.39453 771.5 610.39453 771.5 L 611.42969 798.92188 C 611.42969 798.92188 614.57845 807.20313 619.60547 813.23828 C 624.6325 819.27343 629.05859 817.63281 629.05859 817.63281 L 666.78125 818.30469 C 667.00806 818.25723 667.10547 818.31055 667.10547 818.31055 L 666.78125 818.30469 C 666.12109 818.44126 664.32486 819.45474 660.33203 825.31641 C 654.9667 833.19299 650.57031 852.86914 650.57031 852.86914 L 645.17578 852.93555 L 646.81445 857.35938 L 650.23438 856.55469 L 651.17188 860.54492 C 651.17188 860.54492 648.02266 862.48804 645.70898 865.4375 C 643.39527 868.38695 642.89063 873.91992 642.89062 873.91992 L 641.27734 887.5293 C 641.27734 887.5293 644.36183 890.41337 644.5957 893.9668 C 644.82957 897.52023 647.07422 899.39648 647.07422 899.39648 C 647.07422 899.39648 652.70593 902.88501 656.69531 901.94727 C 660.68469 901.00952 661.589 897.18693 663.63477 893.09766 C 665.68055 889.00836 665.08008 881.33203 665.08008 881.33203 L 661.33008 865.375 C 660.1244 860.24579 655.86523 860.04297 655.86523 860.04297 L 654.49219 856.75781 L 660.89648 855.85352 L 661.09766 851.59766 L 659.38867 852 C 659.38867 851.99999 659.52015 852.56817 663.00977 836.71289 C 666.49961 820.85755 679.77734 815.93359 679.77734 815.93359 L 1123.4316 733.29883 L 1116.0469 773.52344 C 1116.0469 773.52344 1111.2702 850.42234 1138.8848 886.0293 C 1166.4994 921.63626 1163.0808 922.44042 1197.4707 940.81836 C 1231.8606 959.19632 1276.8496 951.02734 1276.8496 951.02734 C 1276.8496 951.02734 1308.4961 942.38663 1327.3418 915.10352 C 1346.1874 887.82043 1354.8477 837.67187 1354.8477 837.67188 C 1356.4008 787.99195 1346.9199 755.33789 1346.9199 755.33789 L 1401.9082 712.94531 L 1501.293 754.53516 C 1501.293 754.53516 1498.6396 771.39507 1503.6621 797.87891 C 1508.6846 824.36276 1521.6211 843.57422 1521.6211 843.57422 C 1521.6211 843.57422 1541.6924 880.35301 1569.3457 893.09766 C 1596.9989 905.84243 1646.5469 896.60156 1646.5469 896.60156 C 1646.5469 896.60156 1695.8608 883.80821 1712.5312 839.5957 C 1729.2018 795.3832 1719.5918 751.93555 1719.5918 751.93555 C 1719.5918 751.93555 1710.6168 703.52655 1676.3633 675.49414 C 1642.1095 647.46179 1608.2504 651.8129 1582.9746 651.74023 C 1557.6987 651.66758 1525.3086 692.95898 1525.3086 692.95898 L 1472.3574 621.21094 C 1472.3574 621.21094 1475.5098 619.26563 1531.4336 580.86133 C 1587.3575 542.45702 1592.9928 525.49735 1595.7402 532.06836 C 1598.4877 538.63938 1607.9434 532.80664 1607.9434 532.80664 L 1615.7891 520.13867 L 1636.375 510.48828 C 1636.375 510.48828 1663.9301 510.0234 1693.6973 513.85156 C 1723.4644 517.67971 1782.6035 492.95508 1782.6035 492.95508 C 1782.6035 492.95508 1898.8711 445.17687 1938.0293 427.55273 C 1977.1874 409.92861 1993.5462 397.66443 1996.834 386.06641 C 2000.1216 374.46837 1973.4395 373.52338 1973.4395 373.52344 L 1711.2031 329.91797 C 1711.2031 329.91797 1713.5194 316.74404 1713.0176 312.05078 C 1712.5158 307.35753 1693.2109 286.63868 1693.2109 286.63867 L 1687.6836 265.68555 C 1695.1607 259.11681 1694.6605 254.42285 1695.7344 248.75781 C 1696.8091 243.09261 1694.1594 239.50477 1689.2324 236.45312 C 1684.3053 233.40148 1677.501 232.59752 1669.8242 233.19922 C 1662.1474 233.80094 1652.1582 237.35156 1652.1582 237.35156 C 1652.1582 237.35156 1622.6259 226.85143 1609.7539 223.26172 C 1596.8826 219.67181 1587.5625 226.07227 1587.5625 226.07227 L 1552.6953 241.48633 C 1552.6953 241.48633 1554.5739 229.01515 1538.2168 220.83203 C 1521.8596 212.64893 1513.6777 229.00586 1513.6777 229.00586 L 1445.8164 288.25977 L 452.24414 134.50586 C 452.24414 134.50586 158.80754 85.472143 90.892578 86.207031 z M 1239.1035 307.72656 L 1250.127 309.38672 L 1243.2969 316.52148 L 1233.5332 311.16211 L 1239.1035 307.72656 z M 1206.3555 308.61914 L 1211.6309 312.05664 L 1179.1289 327.56445 L 1206.3555 308.61914 z M 1219.1895 317.08594 L 1236.541 325.76367 L 1212.666 345.4082 L 1169.7871 338.47852 L 1219.1895 317.08594 z M 452.51172 437.54883 L 751.5957 456.25195 L 907.05859 524.05273 L 869.80664 557.4668 L 452.51172 437.54883 z M 807.7793 459.88477 C 807.7793 459.88477 884.41055 463.52339 912.50195 465.33984 C 940.59336 467.1563 954.13477 473.5957 954.13477 473.5957 L 919.53125 510.59766 L 807.7793 459.88477 z M 1459.8594 628.14453 L 1459.5508 632.25781 L 1383.9375 667.89258 L 1380.0762 664.12305 L 1459.8594 628.14453 z M 1373.793 668.15039 L 1377.4062 671.76562 L 1351.8984 682.65234 L 1349.6836 679.55859 L 1373.793 668.15039 z M 1335.8047 684.73438 L 1338.8125 692.10742 L 1346.4688 690.30664 L 1389.6777 709.49219 L 1341.5273 741.65039 C 1341.5273 741.65039 1339.4671 731.07723 1330.5098 718.29883 C 1321.5526 705.5204 1312.7852 693.54688 1312.7852 693.54688 L 1314.6582 688.85352 L 1335.8047 684.73438 z M 653.33008 863.50391 C 653.73109 863.53065 654.15072 863.6813 654.58398 863.99805 C 657.66499 866.25059 657.85352 867.05664 657.85352 867.05664 L 649.10742 867.83789 C 649.10742 867.83789 650.4974 864.30205 652.52148 863.61328 C 652.65644 863.56747 652.7952 863.53633 652.93555 863.51758 C 653.0651 863.50029 653.19641 863.49499 653.33008 863.50391 z "
         transform="matrix(0.87195903,0.01889142,-0.01889142,0.87195903,67.519689,129.18834)"
         id="path4514" />
      <path
         sodipodi:nodetypes="ccccccccssssccc"
         inkscape:connector-curvature="0"
         id="path4549"
         d="m 1483.1067,383.96586 c 0,0 -60.1077,-178.80063 -73.5786,-216.17235 0,0 -2.2496,-10.59536 0.9508,-9.42934 3.2003,1.16602 8.4784,10.38017 8.4784,10.38017 25.3463,49.40021 86.2826,206.10762 86.2826,206.10762 l 15.7772,30.05731 c 0,0 54.3308,123.13687 68.3086,161.92798 13.9777,38.79112 19.9129,49.53661 23.3509,60.81234 3.438,11.27571 -0.1951,8.91516 -2.6925,9.44538 -2.4973,0.53022 -12.9279,-9.26087 -15.7741,-12.83245 -2.8462,-3.57159 -9.1442,-11.1082 -28.9035,-47.62784 -19.7592,-36.51964 -40.2916,-79.13896 -47.212,-96.98309 -6.9204,-17.84413 -9.6023,-32.93427 -16.5227,-50.7784 -6.9206,-17.84411 -12.1443,-27.69672 -12.1443,-27.69672 0,0 -9.7693,-3.95081 -6.3208,-17.21061"
         style="color:#000000;clip-rule:nonzero;display:inline;overflow:visible;visibility:visible;opacity:1;isolation:auto;mix-blend-mode:normal;color-interpolation:sRGB;color-interpolation-filters:linearRGB;solid-color:#000000;solid-opacity:1;fill:#2d282e;fill-opacity:1;fill-rule:evenodd;stroke:#2d282e;stroke-width:4.36081839;stroke-linecap:butt;stroke-linejoin:miter;stroke-miterlimit:4;stroke-dasharray:none;stroke-dashoffset:0;stroke-opacity:1;color-rendering:auto;image-rendering:auto;shape-rendering:auto;text-rendering:auto;enable-background:accumulate" />
      <path
         inkscape:connector-curvature="0"
         id="path4552"
         d="m 648.52376,452.8693 29.48027,138.85266 64.92478,-48.23538 -12.10804,-160.2885"
         style="color:#000000;clip-rule:nonzero;display:inline;overflow:visible;visibility:visible;opacity:1;isolation:auto;mix-blend-mode:normal;color-interpolation:sRGB;color-interpolation-filters:linearRGB;solid-color:#000000;solid-opacity:1;fill:none;fill-opacity:1;fill-rule:evenodd;stroke:#2d282e;stroke-width:4.36081839;stroke-linecap:butt;stroke-linejoin:miter;stroke-miterlimit:4;stroke-dasharray:none;stroke-dashoffset:0;stroke-opacity:1;color-rendering:auto;image-rendering:auto;shape-rendering:auto;text-rendering:auto;enable-background:accumulate" />
      <path
         inkscape:connector-curvature="0"
         id="path4554"
         d="m 1105.7635,425.73713 24.51,108.06686"
         style="color:#000000;clip-rule:nonzero;display:inline;overflow:visible;visibility:visible;opacity:1;isolation:auto;mix-blend-mode:normal;color-interpolation:sRGB;color-interpolation-filters:linearRGB;solid-color:#000000;solid-opacity:1;fill:#2d282e;fill-opacity:1;fill-rule:evenodd;stroke:#2d282e;stroke-width:4.36081839;stroke-linecap:butt;stroke-linejoin:miter;stroke-miterlimit:4;stroke-dasharray:none;stroke-dashoffset:0;stroke-opacity:1;color-rendering:auto;image-rendering:auto;shape-rendering:auto;text-rendering:auto;enable-background:accumulate" />
      <path
         inkscape:connector-curvature="0"
         id="path4556"
         d="m 623.40516,854.75817 -7.14139,29.38318"
         style="color:#000000;clip-rule:nonzero;display:inline;overflow:visible;visibility:visible;opacity:1;isolation:auto;mix-blend-mode:normal;color-interpolation:sRGB;color-interpolation-filters:linearRGB;solid-color:#000000;solid-opacity:1;fill:#2d282e;fill-opacity:1;fill-rule:evenodd;stroke:#2d282e;stroke-width:4.36081839;stroke-linecap:butt;stroke-linejoin:miter;stroke-miterlimit:4;stroke-dasharray:none;stroke-dashoffset:0;stroke-opacity:1;color-rendering:auto;image-rendering:auto;shape-rendering:auto;text-rendering:auto;enable-background:accumulate" />
    </g>
  </g>
</svg>
