<?xml version="1.0" encoding="UTF-8" standalone="no"?>
<!-- Created with Inkscape (http://www.inkscape.org/) -->

<svg
   xmlns:dc="http://purl.org/dc/elements/1.1/"
   xmlns:cc="http://creativecommons.org/ns#"
   xmlns:rdf="http://www.w3.org/1999/02/22-rdf-syntax-ns#"
   xmlns:svg="http://www.w3.org/2000/svg"
   xmlns="http://www.w3.org/2000/svg"
   xmlns:sodipodi="http://sodipodi.sourceforge.net/DTD/sodipodi-0.dtd"
   xmlns:inkscape="http://www.inkscape.org/namespaces/inkscape"
   version="1.1"
   id="svg4504"
   width="1997.1154"
   height="952.83655"
   viewBox="0 0 1997.1154 952.83655"
   sodipodi:docname="plane.svg"
   inkscape:version="0.92.2 (5c3e80d, 2017-08-06)">
  <metadata
     id="metadata4510">
    <rdf:RDF>
      <cc:Work
         rdf:about="">
        <dc:format>image/svg+xml</dc:format>
        <dc:type
           rdf:resource="http://purl.org/dc/dcmitype/StillImage" />
        <dc:title></dc:title>
      </cc:Work>
    </rdf:RDF>
  </metadata>
  <defs
     id="defs4508" />
  <sodipodi:namedview
     pagecolor="#ffffff"
     bordercolor="#666666"
     borderopacity="1"
     objecttolerance="10"
     gridtolerance="10"
     guidetolerance="10"
     inkscape:pageopacity="0"
     inkscape:pageshadow="2"
     inkscape:window-width="1548"
     inkscape:window-height="1018"
     id="namedview4506"
     showgrid="false"
     inkscape:zoom="0.415625"
     inkscape:cx="1022.7071"
     inkscape:cy="425.81779"
     inkscape:window-x="1003"
     inkscape:window-y="0"
     inkscape:window-maximized="0"
     inkscape:current-layer="g4571"
     showguides="false" />
  <g
     inkscape:groupmode="layer"
     id="layer2"
     inkscape:label="silhouette"
     style="display:inline"
     transform="translate(31.385812,-186.71916)">
    <g
       style="display:inline;stroke-width:0.87216365;fill:#2d282e;fill-opacity:1"
       id="g4571"
       transform="matrix(1.1463048,-0.02483525,0.02483525,1.1463048,-111.99238,40.306811)">
      <path
         inkscape:connector-curvature="0"
         id="path4516"
         d="m 1447.5379,356.30577 -30.6936,12.78049"
         style="color:#000000;clip-rule:nonzero;display:inline;overflow:visible;visibility:visible;opacity:1;isolation:auto;mix-blend-mode:normal;color-interpolation:sRGB;color-interpolation-filters:linearRGB;solid-color:#000000;solid-opacity:1;fill:#2d282e;fill-opacity:1;fill-rule:evenodd;stroke:#2d282e;stroke-width:4.36081839;stroke-linecap:butt;stroke-linejoin:miter;stroke-miterlimit:4;stroke-dasharray:none;stroke-dashoffset:0;stroke-opacity:1;color-rendering:auto;image-rendering:auto;shape-rendering:auto;text-rendering:auto;enable-background:accumulate" />
      <path
         inkscape:connector-curvature="0"
         id="path4514"
         d="M 130.63486,207.52256 C 96.39215,215.14448 91.048191,247.5983 78.680716,281.54316 65.488739,317.751 51.584509,429.27515 72.055323,466.6877 c 20.470813,37.41253 24.219355,15.73763 24.219335,15.73763 l 152.243112,18.23455 150.41961,13.09456 406.96398,126.1968 -108.85147,88.81084 c 0,0 0.14963,0.70655 -26.48794,-48.26457 -26.63757,-48.97112 -39.67597,-61.70596 -46.48309,-62.47531 -6.80712,-0.76935 -13.22753,7.23894 -13.22754,7.23889 -8.85873,17.38298 -11.77165,10.61847 -17.28756,47.22307 -5.51592,36.60461 -6.57497,90.71828 -6.57497,90.71828 0,0 -1.56348,-0.40711 -84.74417,7.65669 -83.18067,8.06379 -123.86821,28.51388 -127.50648,32.23913 -3.63826,3.72525 -3.44541,8.11423 1.69255,11.45256 5.13795,3.33833 21.32044,6.5463 21.32044,6.5463 0,0 20.87216,4.42605 81.34294,4.13666 60.47076,-0.28939 106.09054,-11.79729 106.09054,-11.79729 l 0.38412,23.9304 c 0,0 2.5883,7.27992 6.85764,12.63729 4.26935,5.35737 8.15987,4.00994 8.15987,4.00994 l 32.8809,1.29863 c 0.19867,-0.0371 0.28206,0.0113 0.28206,0.0113 l -0.28206,-0.0113 c -0.57821,0.10661 -2.16439,0.95604 -5.75671,5.99174 -4.82715,6.7667 -9.03143,23.84129 -9.03143,23.84129 l -4.70616,-0.0449 1.34599,3.88882 2.99711,-0.63633 0.74238,3.49663 c 0,0 -2.7836,1.63527 -4.85675,4.16337 -2.07318,2.52809 -2.61745,7.34218 -2.61745,7.34218 l -1.66329,11.83623 c 0,0 2.63441,2.5732 2.77121,5.67606 0.13679,3.10287 2.05923,4.78146 2.05923,4.78146 0,0 4.84493,3.14764 8.34122,2.40533 3.49629,-0.74231 4.35742,-4.05766 6.2185,-7.58469 1.86109,-3.52705 1.48195,-10.23162 1.48195,-10.23162 l -2.96918,-13.98491 c -0.9544,-4.49524 -4.66324,-4.75233 -4.66324,-4.75233 l -1.13584,-2.89105 5.60077,-0.66708 0.25699,-3.70711 -1.49855,0.31816 c 0,-10e-6 0.10496,0.49846 3.44729,-13.26077 3.34253,-13.75928 15.01188,-17.80252 15.01188,-17.80252 l 388.40974,-63.67299 -7.1981,34.93514 c 0,0 -5.6186,66.96279 17.7875,98.53228 23.4062,31.56949 20.41,32.20634 50.0494,48.88082 29.6394,16.6745 69.0218,10.4001 69.0218,10.4001 0,0 27.7585,-6.93612 44.7066,-30.36986 16.948,-23.43371 25.4467,-66.9978 25.4467,-66.9978 2.2928,-43.28952 -5.357,-71.94084 -5.357,-71.94084 l 48.7472,-35.92603 85.8746,38.14244 c 0,0 -2.6318,14.65099 1.2473,37.83869 3.8791,23.18772 14.796,40.18417 14.796,40.18417 0,0 16.8066,32.44871 40.6784,44.08393 23.8717,11.63533 67.25,4.51356 67.25,4.51356 0,0 43.2417,-10.22486 58.6129,-48.46143 15.3712,-38.23656 7.8119,-76.30284 7.8119,-76.30284 0,0 -6.9106,-42.38006 -36.2487,-67.47027 -29.3383,-25.09016 -58.9442,-21.93513 -80.9823,-22.47599 -22.0382,-0.54085 -51.0619,34.85137 -51.0619,34.85137 l -44.8154,-63.5616 c 0,0 2.7854,-1.63589 52.2742,-34.06639 49.4889,-32.4305 54.7231,-47.11286 56.9946,-41.33131 2.2715,5.78156 10.6263,0.87441 10.6263,0.87441 l 7.0811,-10.89834 18.1317,-8.02589 c 0,0 24.0356,0.11648 49.919,4.01682 25.8834,3.90033 77.9169,-16.54278 77.9169,-16.54278 0,0 102.2831,-39.46261 136.7604,-54.09038 34.4772,-14.62776 48.9746,-25.01419 52.0605,-35.06508 3.0858,-10.0509 -20.1633,-11.37849 -20.1633,-11.37844 L 1553.386,449.19086 c 0,0 2.2688,-11.44315 1.9199,-15.54496 -0.3489,-4.1018 -16.7909,-22.53343 -16.7909,-22.53344 l -4.4233,-18.37451 c 6.6438,-5.58642 6.296,-9.68805 7.3394,-14.60744 1.0441,-4.91952 -1.1978,-8.09863 -5.4363,-10.85261 -4.2386,-2.75399 -10.1567,-3.58441 -16.8619,-3.20478 -6.7052,0.37965 -15.4834,3.28734 -15.4834,3.28734 0,0 -25.5514,-9.713 -36.7074,-13.08625 -11.1554,-3.37341 -19.4043,2.03163 -19.4043,2.03163 l -30.6933,12.78103 c 0,0 1.874,-10.83791 -12.2341,-18.28226 -14.1082,-7.44434 -21.5513,6.66378 -21.5513,6.66378 l -60.2929,50.38415 -863.44863,-152.83705 c 0,0 -280.63185,-53.16634 -321.4378,-48.67857 -2.55037,0.28048 -4.96205,0.67752 -7.24491,1.18564 z m 323.19067,311.73947 260.43585,21.95879 134.27574,62.05616 -33.11278,28.43205 z m 659.75727,-98.18021 4.5337,3.09676 -28.6324,12.90789 z m 28.5709,-0.1609 9.5809,1.65741 -6.09,6.09129 -8.4127,-4.85795 z m -17.5404,7.7851 14.9646,7.89573 -21.1879,16.67817 -37.2587,-6.85393 z M 763.18142,545.44974 c 0,0 66.75126,4.6201 91.2115,6.73466 24.46024,2.11456 36.14629,7.98505 36.14629,7.98505 l -30.87184,31.6105 z m 437.65348,209.22706 18.5156,-3.19211 2.4835,6.48461 6.7111,-1.42486 37.3134,17.54573 -42.5927,27.12951 c 0,0 -1.5965,-9.25791 -9.1655,-20.56937 -7.5689,-11.31148 -14.987,-21.91644 -14.987,-21.91644 z M 620.17762,894.55136 c 0.11854,-0.0374 0.23893,-0.0631 0.36166,-0.0768 0.45317,-0.0505 0.93224,0.0719 1.42798,0.45107 2.64396,2.02233 2.7946,2.7287 2.7946,2.7287 l -7.64141,0.51559 c 0,0 1.27924,-3.05624 3.05717,-3.61858 z"
         style="color:#000000;clip-rule:nonzero;display:inline;overflow:visible;visibility:visible;opacity:1;isolation:auto;mix-blend-mode:normal;color-interpolation:sRGB;color-interpolation-filters:linearRGB;solid-color:#000000;solid-opacity:1;fill:#2d282e;fill-opacity:1;fill-rule:evenodd;stroke:#2d282e;stroke-width:4.36081839;stroke-linecap:butt;stroke-linejoin:miter;stroke-miterlimit:4;stroke-dasharray:none;stroke-dashoffset:0;stroke-opacity:1;color-rendering:auto;image-rendering:auto;shape-rendering:auto;text-rendering:auto;enable-background:accumulate" />
      <path
         inkscape:connector-curvature="0"
         id="path4545"
         d="m 1328.5904,704.48429 -0.3472,3.58016 -66.6034,29.64293 -3.297,-3.36008 z"
         style="color:#000000;clip-rule:nonzero;display:inline;overflow:visible;visibility:visible;opacity:1;isolation:auto;mix-blend-mode:normal;color-interpolation:sRGB;color-interpolation-filters:linearRGB;solid-color:#000000;solid-opacity:1;fill:#2d282e;fill-opacity:1;fill-rule:evenodd;stroke:#2d282e;stroke-width:4.36081839;stroke-linecap:butt;stroke-linejoin:miter;stroke-miterlimit:4;stroke-dasharray:none;stroke-dashoffset:0;stroke-opacity:1;color-rendering:auto;image-rendering:auto;shape-rendering:auto;text-rendering:auto;enable-background:accumulate" />
      <path
         inkscape:connector-curvature="0"
         id="path4547"
         d="m 1255.8716,740.9621 -22.4475,9.01053 -1.8734,-2.73958 21.2379,-9.49194 z"
         style="color:#000000;clip-rule:nonzero;display:inline;overflow:visible;visibility:visible;opacity:1;isolation:auto;mix-blend-mode:normal;color-interpolation:sRGB;color-interpolation-filters:linearRGB;solid-color:#000000;solid-opacity:1;fill:#2d282e;fill-opacity:1;fill-rule:evenodd;stroke:#2d282e;stroke-width:4.36081839;stroke-linecap:butt;stroke-linejoin:miter;stroke-miterlimit:4;stroke-dasharray:none;stroke-dashoffset:0;stroke-opacity:1;color-rendering:auto;image-rendering:auto;shape-rendering:auto;text-rendering:auto;enable-background:accumulate" />
      <path
         sodipodi:nodetypes="ccccccccssssccc"
         inkscape:connector-curvature="0"
         id="path4549"
         d="m 1483.1067,383.96586 c 0,0 -60.1077,-178.80063 -73.5786,-216.17235 0,0 -2.2496,-10.59536 0.9508,-9.42934 3.2003,1.16602 8.4784,10.38017 8.4784,10.38017 25.3463,49.40021 86.2826,206.10762 86.2826,206.10762 l 15.7772,30.05731 c 0,0 54.3308,123.13687 68.3086,161.92798 13.9777,38.79112 19.9129,49.53661 23.3509,60.81234 3.438,11.27571 -0.1951,8.91516 -2.6925,9.44538 -2.4973,0.53022 -12.9279,-9.26087 -15.7741,-12.83245 -2.8462,-3.57159 -9.1442,-11.1082 -28.9035,-47.62784 -19.7592,-36.51964 -40.2916,-79.13896 -47.212,-96.98309 -6.9204,-17.84413 -9.6023,-32.93427 -16.5227,-50.7784 -6.9206,-17.84411 -12.1443,-27.69672 -12.1443,-27.69672 0,0 -9.7693,-3.95081 -6.3208,-17.21061"
         style="color:#000000;clip-rule:nonzero;display:inline;overflow:visible;visibility:visible;opacity:1;isolation:auto;mix-blend-mode:normal;color-interpolation:sRGB;color-interpolation-filters:linearRGB;solid-color:#000000;solid-opacity:1;fill:#2d282e;fill-opacity:1;fill-rule:evenodd;stroke:#2d282e;stroke-width:4.36081839;stroke-linecap:butt;stroke-linejoin:miter;stroke-miterlimit:4;stroke-dasharray:none;stroke-dashoffset:0;stroke-opacity:1;color-rendering:auto;image-rendering:auto;shape-rendering:auto;text-rendering:auto;enable-background:accumulate" />
      <path
         inkscape:connector-curvature="0"
         id="path4552"
         d="m 648.52376,452.8693 29.48027,138.85266 64.92478,-48.23538 -12.10804,-160.2885"
         style="color:#000000;clip-rule:nonzero;display:inline;overflow:visible;visibility:visible;opacity:1;isolation:auto;mix-blend-mode:normal;color-interpolation:sRGB;color-interpolation-filters:linearRGB;solid-color:#000000;solid-opacity:1;fill:none;fill-opacity:1;fill-rule:evenodd;stroke:#2d282e;stroke-width:4.36081839;stroke-linecap:butt;stroke-linejoin:miter;stroke-miterlimit:4;stroke-dasharray:none;stroke-dashoffset:0;stroke-opacity:1;color-rendering:auto;image-rendering:auto;shape-rendering:auto;text-rendering:auto;enable-background:accumulate" />
      <path
         inkscape:connector-curvature="0"
         id="path4554"
         d="m 1105.7635,425.73713 24.51,108.06686"
         style="color:#000000;clip-rule:nonzero;display:inline;overflow:visible;visibility:visible;opacity:1;isolation:auto;mix-blend-mode:normal;color-interpolation:sRGB;color-interpolation-filters:linearRGB;solid-color:#000000;solid-opacity:1;fill:#2d282e;fill-opacity:1;fill-rule:evenodd;stroke:#2d282e;stroke-width:4.36081839;stroke-linecap:butt;stroke-linejoin:miter;stroke-miterlimit:4;stroke-dasharray:none;stroke-dashoffset:0;stroke-opacity:1;color-rendering:auto;image-rendering:auto;shape-rendering:auto;text-rendering:auto;enable-background:accumulate" />
      <path
         inkscape:connector-curvature="0"
         id="path4556"
         d="m 623.40516,854.75817 -7.14139,29.38318"
         style="color:#000000;clip-rule:nonzero;display:inline;overflow:visible;visibility:visible;opacity:1;isolation:auto;mix-blend-mode:normal;color-interpolation:sRGB;color-interpolation-filters:linearRGB;solid-color:#000000;solid-opacity:1;fill:#2d282e;fill-opacity:1;fill-rule:evenodd;stroke:#2d282e;stroke-width:4.36081839;stroke-linecap:butt;stroke-linejoin:miter;stroke-miterlimit:4;stroke-dasharray:none;stroke-dashoffset:0;stroke-opacity:1;color-rendering:auto;image-rendering:auto;shape-rendering:auto;text-rendering:auto;enable-background:accumulate" />
    </g>
  </g>
</svg>
